<?xml version="1.0" encoding="utf-8"?>
<!-- Generator: Adobe Illustrator 25.4.1, SVG Export Plug-In . SVG Version: 6.00 Build 0)  -->
<svg version="1.1" id="Слой_1" xmlns="http://www.w3.org/2000/svg" xmlns:xlink="http://www.w3.org/1999/xlink" x="0px" y="0px"
	 viewBox="0 0 2243.2 1901" style="enable-background:new 0 0 2243.2 1901;" xml:space="preserve">
<style type="text/css">
	.st0{fill:#FFFFFF;}
	.st1{fill:#1F1F1F;}
	.st2{fill:#232323;}
</style>
<path class="st0" d="M588.2,812.2c0,26.5-22.9,48-51.2,48c-28.3,0-51.3-21.5-51.3-48s22.9-48,51.3-48
	C565.3,764.2,588.2,785.7,588.2,812.2z"/>
<path class="st0" d="M1755.5,812.2c0,26.5-23,48-51.2,48c-28.3,0-51.3-21.5-51.3-48s23-48,51.3-48
	C1732.6,764.2,1755.5,785.7,1755.5,812.2z"/>
<path class="st0" d="M2059.7,576.8H183.4C82.6,576.8,0,659.3,0,760.2v957.4C0,1818.4,82.5,1901,183.4,1901h1876.4
	c100.9,0,183.4-82.5,183.4-183.4V760.2C2243.1,659.4,2160.6,576.8,2059.7,576.8z M2199.2,1713.9c0,76.2-61.8,137.9-137.9,137.9
	H261.7c-76.2,0-137.9-61.7-137.9-137.9V830.4c0-76.2,61.8-137.9,137.9-137.9h1799.6c76.2,0,137.9,61.8,137.9,137.9V1713.9z"/>
<path class="st0" d="M1116.9,0c-73.5,0-133.1,59.6-133.1,133.1s59.6,133.1,133.1,133.1S1250,206.6,1250,133.1
	C1250.1,59.6,1190.5,0,1116.9,0z M1132.6,240.8c-53.3,0-96.6-43.2-96.6-96.6c0-53.3,43.2-96.5,96.6-96.5c53.3,0,96.6,43.2,96.6,96.5
	S1185.9,240.8,1132.6,240.8z"/>
<g>
	<path class="st1" d="M2019.7,656.1c76.1,0,137.8,61.7,137.8,137.8v882.5c0,76.1-61.7,137.8-137.8,137.8H220.8
		c-76.1,0-137.8-61.7-137.8-137.8V793.9c0-76.1,61.7-137.8,137.8-137.8L2019.7,656.1 M2019.7,599.7H220.8
		c-26.2,0-51.6,5.1-75.6,15.3c-23.1,9.8-43.9,23.8-61.7,41.6c-17.8,17.8-31.8,38.6-41.6,61.7c-10.1,24-15.3,49.4-15.3,75.6v882.5
		c0,26.2,5.1,51.6,15.3,75.6c9.8,23.1,23.8,43.9,41.6,61.7s38.6,31.8,61.7,41.6c24,10.1,49.4,15.3,75.6,15.3h1798.8
		c26.2,0,51.6-5.1,75.6-15.3c23.1-9.8,43.9-23.8,61.7-41.6s31.8-38.6,41.6-61.7c10.1-24,15.3-49.4,15.3-75.6V793.9
		c0-26.2-5.1-51.6-15.3-75.6c-9.8-23.1-23.8-43.9-41.6-61.7c-17.8-17.8-38.6-31.8-61.7-41.6C2071.3,604.8,2045.9,599.7,2019.7,599.7
		L2019.7,599.7z"/>
</g>
<path class="st2" d="M527.7,765.6l7.6-9c0,0-38.6-1.2-50.3,38.3c-7.1,23.8,4.2,41.3,14.3,51.4c7.4,7.4,16.9,12.1,27.3,13.4
	c13.6,1.7,34,0.8,49.1-15.4c7.6-8.1,11.8-18.8,12.6-29.9c0.5-7.1-0.2-16.2-1-18.7l-7.2,8.3c0,0,5,42.2-39.5,40.6
	c-11.3-0.4-22.2-4.6-30.6-12.2c-7.1-6.4-14.3-15.8-15.3-27.9c-1.3-15.2,7.5-29.8,21.6-35.7C519.6,767.4,523.4,766.2,527.7,765.6z"/>
<path class="st2" d="M1715.8,769.9l-8.2-9.9c0,0,42.2-1.3,54.9,41.8c7.7,26-4.6,45-15.6,56.1c-8,8-18.5,13.2-29.8,14.6
	c-14.8,1.9-37.1,0.9-53.6-16.8c-8.3-8.8-12.9-20.6-13.8-32.7c-0.6-7.7,0-18.6,0.9-21.2l7.8,9.1c0,0-5.3,46.9,43.3,45.1
	c12.3-0.5,24.2-5.1,33.3-13.3c7.7-7,15.6-17.2,16.7-30.5c1.4-16.6-8.2-32.5-23.6-38.9C1724.6,771.8,1720.5,770.6,1715.8,769.9z"/>
<g>
	<path class="st1" d="M538.5,822.7c-2.8,0-5.6-0.4-8.3-1.1c-7.5-2-13.5-7.9-15.7-15.6c-2.7-9.2-4.2-22.6,3.6-34l0.1-0.2l441.5-596.2
		l0.2-0.2c1-1.1,23.6-26.5,38.5-34.1l5.9-3l21.8,55.8l-151,204.5L575.3,802c-5.5,7.4-12.4,13.2-19.9,16.7
		C549.7,821.4,544,822.7,538.5,822.7z"/>
	<path class="st0" d="M1001.1,146.8l18.2,46.6l-149,201.9L570.5,798.6c-4.6,6.2-10.6,11.5-17.6,14.8c-4.2,2-9.1,3.4-14.3,3.4
		c-2.2,0-4.5-0.3-6.8-0.9c-5.6-1.5-9.9-5.9-11.5-11.4c-2.2-7.5-3.8-19.3,2.8-28.9l441.3-596C964.3,179.5,987,154,1001.1,146.8
		 M1007.5,130l-11.8,6.1c-15.6,8-37.8,32.7-40.3,35.5L955,172l-0.3,0.4l-441.3,596l-0.1,0.2l-0.1,0.2c-7.1,10.4-8.7,24.2-4.4,39
		c2.8,9.7,10.4,17.2,19.9,19.7c3.2,0.8,6.5,1.3,9.9,1.3c6.4,0,12.9-1.5,19.4-4.6c8.4-3.9,16.1-10.3,22.2-18.5L880,402.4l149-201.9
		l3.9-5.3l-2.4-6.2l-18.2-46.6L1007.5,130L1007.5,130z"/>
</g>
<g>
	<path class="st1" d="M1695.2,822.7c-5.5,0-11.2-1.3-16.9-4c-7.5-3.5-14.4-9.3-19.9-16.7l-299.8-403.3l-151-204.6l21.8-55.8l5.9,3
		c14.9,7.7,37.6,33,38.5,34.1l0.2,0.2l441.5,596.3l0.1,0.1c7.8,11.4,6.3,24.8,3.6,34c-2.2,7.6-8.2,13.6-15.7,15.6
		C1700.8,822.3,1698,822.7,1695.2,822.7L1695.2,822.7z"/>
	<path class="st0" d="M1232.5,146.8c14.1,7.2,36.8,32.8,36.8,32.8l441.3,596c6.6,9.6,5,21.4,2.8,28.9c-1.6,5.5-5.9,10-11.5,11.4
		c-2.3,0.6-4.6,0.9-6.8,0.9c-5.2,0-10.1-1.5-14.3-3.4c-7.1-3.3-13-8.6-17.6-14.8l-299.8-403.3l-149-201.9L1232.5,146.8 M1226.2,130
		l-4.8,12.4l-18.2,46.6l-2.4,6.2l3.9,5.3l149,201.9l299.9,403.3c6.1,8.2,13.8,14.6,22.2,18.5c6.5,3,13,4.6,19.4,4.6
		c3.3,0,6.7-0.4,9.9-1.3c9.5-2.5,17.1-10.1,19.9-19.7c4.3-14.8,2.7-28.6-4.4-39l-0.1-0.2l-0.1-0.2l-441.3-596l-0.3-0.4l-0.4-0.4
		c-2.5-2.8-24.6-27.4-40.3-35.5L1226.2,130L1226.2,130z"/>
</g>
<g>
	<path class="st1" d="M1116.9,31.2c54.5,0,98.9,44.4,98.9,98.9s-44.4,98.9-98.9,98.9s-98.9-44.4-98.9-98.9S1062.4,31.2,1116.9,31.2
		 M1116.9,11.2c-65.7,0-118.9,53.2-118.9,118.9S1051.2,249,1116.9,249s118.9-53.2,118.9-118.9C1235.9,64.4,1182.6,11.2,1116.9,11.2
		L1116.9,11.2z"/>
</g>
</svg>
